

[img]http://img.affenheimtheater.de/cover_br/cover_naked_weapon_hk.jpg[/img]


They will seduce you - just before they kill you! 
A mysterious woman, known as Madame M, kidnaps forty pre-teen girls and transports them to a 

remote island to train them as the most deadly assassins. CIA operative Jack Chen follows the case 

for 6 years with no leads, but when a series of assassinations begin to occur, Jack suspects that 

Madame M is back in business.  







General
Complete name                    : Naked Weapon 2002 Multisub DVDRip GoGoNaked Weapon 2002 

Multisub DVDRip GoGo.avi
IMDB Link                        : http://www.imdb.com/title/tt0341495/
Format                           : AVI
Format/Info                      : Audio Video Interleave
File size                        : 700 MiB
Duration                         : 1h 31mn
Overall bit rate                 : 1 068 Kbps
Writing application              : VirtualDubMod 1.5.4.1 (build 2178/release)
Writing library                  : VirtualDubMod build 2178/release

Video
ID                               : 0
Format                           : MPEG-4 Visual
Format profile                   : Advanced Simple@L5
Format settings, BVOP            : Yes
Format settings, QPel            : No
Format settings, GMC             : No warppoints
Format settings, Matrix          : Custom
Codec ID                         : XVID
Codec ID/Hint                    : XviD
Duration                         : 1h 31mn
Bit rate                         : 938 Kbps
Width                            : 576 pixels
Height                           : 304 pixels
Display aspect ratio             : 1.895
Frame rate                       : 23.976 fps
Resolution                       : 8 bits
Colorimetry                      : 4:2:0
Scan type                        : Progressive
Bits/(Pixel*Frame)               : 0.223
Stream size                      : 615 MiB (88%)
Writing library                  : XviD 1.2.1 (UTC 2008-12-04)

Audio
ID                               : 1
Format                           : MPEG Audio
Format version                   : Version 1
Format profile                   : Layer 3
Mode                             : Joint stereo
Format_Settings_ModeExtension    : MS Stereo
Codec ID                         : 55
Codec ID/Hint                    : MP3
Duration                         : 1h 31mn
Bit rate mode                    : Variable
Bit rate                         : 117 Kbps
Nominal bit rate                 : 128 Kbps
Channel(s)                       : 2 channels
Sampling rate                    : 48.0 KHz
Stream size                      : 76.9 MiB (11%)
Alignment                        : Aligned on interleaves
Interleave, duration             : 24 ms (0.58 video frame)
Interleave, preload duration     : 157 ms
Writing library                  : LAME3.98r
Encoding settings                : -m j -V 4 -q 2 -lowpass 17 --abr 128
Language                         : English
Subtitles                        : English,Chinese(.IDX+*.SUB)
                                 : English.(.srt)
Genre                            : Action | Drama | Romance | Thriller 


[img]http://imgboot.com/images/fasamoo/pleaseseed.gif[/img]